# xmcd
#
# Track frame offsets: 
#        150
#        19870
#        33662
#        50652
#        68395
#        81465
#        95317
#        107670
#        123005
#        139060
#        152297
#        167600
#        183525
#        204102
#        217897
#        234362
#        252832
#
# Disc length: 3615 seconds
#
# Revision: 3
# Processed by: cddbd v1.5.2PL0 Copyright (c) Steve Scherf et al.
# Submitted via: ExactAudioCopyFreeDBPlugin 1.0
#
DISCID=d30e1d11
DTITLE=Various Artist - Total Country
DYEAR=1998
DGENRE=Country
TTITLE0=Alan Jackson - Gone Country
TTITLE1=Tracy Byrd - Watermelon Crawl
TTITLE2=Blackhawk - Down In Flames
TTITLE3=John Michael Montgomery - I Can Love You Like That
TTITLE4=Pam Tillis - Mi Vida Loca (My Crazy Life)
TTITLE5=Tracy Lawrence - As Any Fool Can See
TTITLE6=Sawyer Brown - This Time
TTITLE7=Neal McCoy - For A Change
TTITLE8=Joe Diffie - So Help Me Girl
TTITLE9=Collin Raye - My Kind Of Girl
TTITLE10=Sammy Kershaw - Third Rate Romance
TTITLE11=Diamond Rio - Night Is Fallin' In My Heart
TTITLE12=Lari White - Now I Know
TTITLE13=Brooks and Dunn - Little Miss Honky Tonk
TTITLE14=Doug Stone - Little Houses
TTITLE15=John Berry - Standing On The Edge Of Goodbye
TTITLE16=John Anderson - Bend It Until It Breaks
EXTD=\n\nYEAR: 2000  ID3G:   2
EXTT0=
EXTT1=
EXTT2=
EXTT3=
EXTT4=
EXTT5=
EXTT6=
EXTT7=
EXTT8=
EXTT9=
EXTT10=
EXTT11=
EXTT12=
EXTT13=
EXTT14=
EXTT15=
EXTT16=
PLAYORDER=
